<svg width="300" height="400" viewBox="0 0 300 400" xmlns="http://www.w3.org/2000/svg">
  <!-- 基於照片特徵的虛擬人頭像 -->
  
  <!-- 頭部輪廓 -->
  <ellipse cx="150" cy="200" rx="80" ry="100" fill="#FFE4B5" stroke="#D2691E" stroke-width="2"/>
  
  <!-- 臉部輪廓 -->
  <ellipse cx="150" cy="220" rx="60" ry="80" fill="#FFE4B5"/>
  
  <!-- 頭髮 - 基於照片的黑色長直髮 -->
  <path d="M 70 120 Q 150 80 230 120 Q 220 140 210 150 Q 200 160 190 170 Q 180 180 170 190 Q 160 200 150 200 Q 140 200 130 190 Q 120 180 110 170 Q 100 160 90 150 Q 80 140 70 120" 
        fill="#2C1810" stroke="#1A0F0A" stroke-width="1"/>
  
  <!-- 眼睛區域 - 基於照片的杏仁狀眼睛 -->
  <g id="eyes">
    <!-- 左眼 -->
    <ellipse cx="130" cy="180" rx="10" ry="6" fill="#4A4A4A"/>
    <ellipse cx="130" cy="178" rx="4" ry="3" fill="#FFFFFF"/>
    <circle cx="130" cy="177" r="1.5" fill="#000000"/>
    
    <!-- 右眼 -->
    <ellipse cx="170" cy="180" rx="10" ry="6" fill="#4A4A4A"/>
    <ellipse cx="170" cy="178" rx="4" ry="3" fill="#FFFFFF"/>
    <circle cx="170" cy="177" r="1.5" fill="#000000"/>
  </g>
  
  <!-- 眉毛 - 基於照片的自然眉毛 -->
  <path d="M 120 170 Q 130 168 140 170" stroke="#2C1810" stroke-width="2" fill="none"/>
  <path d="M 160 170 Q 170 168 180 170" stroke="#2C1810" stroke-width="2" fill="none"/>
  
  <!-- 鼻子 - 基於照片的挺直鼻子 -->
  <ellipse cx="150" cy="200" rx="3" ry="8" fill="#D2691E"/>
  
  <!-- 嘴部區域 - 基於照片的溫和微笑 -->
  <g id="mouth">
    <ellipse cx="150" cy="240" rx="12" ry="4" fill="#FF6B6B" stroke="#D2691E" stroke-width="1"/>
  </g>
  
  <!-- 臉頰 - 基於照片的自然膚色 -->
  <circle cx="120" cy="210" r="15" fill="#FFE4B5" opacity="0.6"/>
  <circle cx="180" cy="210" r="15" fill="#FFE4B5" opacity="0.6"/>
  
  <!-- 項鍊 - 基於照片的金色項鍊 -->
  <ellipse cx="150" cy="280" rx="25" ry="3" fill="#FFD700" stroke="#DAA520" stroke-width="1"/>
  <circle cx="150" cy="280" r="3" fill="#FFD700" stroke="#DAA520" stroke-width="1"/>
</svg>
