<svg width="300" height="400" viewBox="0 0 300 400" xmlns="http://www.w3.org/2000/svg">
  <!-- 基於用戶 avatar.svg 的極簡主義風格 - 嘴部半開版本 -->
  
  <!-- 背景棋盤格 -->
  <defs>
    <pattern id="checkerboard" x="0" y="0" width="20" height="20" patternUnits="userSpaceOnUse">
      <rect width="10" height="10" fill="#FFFFFF"/>
      <rect x="10" y="0" width="10" height="10" fill="#CCCCCC"/>
      <rect x="0" y="10" width="10" height="10" fill="#CCCCCC"/>
      <rect x="10" y="10" width="10" height="10" fill="#FFFFFF"/>
    </pattern>
  </defs>
  
  <!-- 背景 -->
  <rect width="300" height="400" fill="url(#checkerboard)"/>
  
  <!-- 臉部輪廓 - 淺桃色橢圓 -->
  <ellipse cx="150" cy="200" rx="60" ry="80" fill="#FFE4B5" stroke="#D2691E" stroke-width="2"/>
  
  <!-- 頭髮/帽子 - 深棕色 V 形 -->
  <path d="M 90 140 L 150 120 L 210 140 L 200 160 L 100 160 Z" fill="#8B4513"/>
  
  <!-- 眼睛 - 簡化的圓形 -->
  <g id="eyes">
    <!-- 左眼 -->
    <circle cx="130" cy="180" r="8" fill="#4A4A4A"/>
    <circle cx="130" cy="178" r="3" fill="#FFFFFF"/>
    
    <!-- 右眼 -->
    <circle cx="170" cy="180" r="8" fill="#4A4A4A"/>
    <circle cx="170" cy="178" r="3" fill="#FFFFFF"/>
  </g>
  
  <!-- 鼻子 - 橘棕色橢圓 -->
  <ellipse cx="150" cy="200" rx="3" ry="6" fill="#D2691E"/>
  
  <!-- 嘴部 - 半開狀態 (中等橢圓) -->
  <g id="mouth">
    <ellipse cx="150" cy="240" rx="10" ry="5" fill="#FF6B6B"/>
  </g>
  
  <!-- 下巴飾品 - 黃色橢圓 -->
  <ellipse cx="150" cy="280" rx="15" ry="5" fill="#FFD700"/>
  <circle cx="150" cy="280" r="2" fill="#D2691E"/>
</svg>
